<?xml version="1.0" standalone="no"?>
<!DOCTYPE svg PUBLIC "-//W3C//DTD SVG 20010904//EN"
 "http://www.w3.org/TR/2001/REC-SVG-20010904/DTD/svg10.dtd">
<svg version="1.0" xmlns="http://www.w3.org/2000/svg"
 width="201.000000pt" height="251.000000pt" viewBox="0 0 201.000000 251.000000"
 preserveAspectRatio="xMidYMid meet">

<g transform="translate(0.000000,251.000000) scale(0.100000,-0.100000)"
fill="#000000" stroke="none">
<path d="M0 1255 l0 -1255 1005 0 1005 0 0 1255 0 1255 -1005 0 -1005 0 0
-1255z m430 1200 c0 -8 -3 -15 -7 -15 -5 0 -14 -4 -21 -9 -12 -7 -12 -12 0
-31 10 -18 10 -24 1 -27 -19 -7 -16 -33 3 -33 9 0 14 -6 12 -12 -6 -18 -90
-31 -101 -15 -7 9 -10 9 -14 0 -9 -23 -34 -15 -29 10 3 12 8 48 11 80 5 40 11
57 21 57 8 0 15 -8 15 -17 1 -17 2 -17 6 0 2 9 11 17 20 17 11 0 13 -5 8 -17
-14 -33 -18 -113 -6 -113 6 0 11 15 11 34 0 55 11 95 29 99 31 9 41 7 41 -8z
m-228 -37 l1 -33 4 33 c3 21 10 32 20 32 12 0 14 -7 9 -31 -3 -17 -6 -46 -6
-63 0 -18 -6 -41 -14 -51 -13 -19 -15 -18 -24 15 l-10 35 -1 -32 c-1 -23 -6
-33 -17 -33 -12 0 -14 9 -9 48 13 99 16 112 30 112 10 0 16 -11 17 -32z m72
-20 c-8 -81 -13 -98 -29 -98 -10 0 -13 8 -10 28 2 15 7 48 10 75 4 31 11 47
20 47 11 0 13 -12 9 -52z m1613 -80 c-3 -29 -13 -128 -23 -220 l-17 -166 -34
-7 c-19 -3 -37 -4 -40 -1 -3 3 2 74 11 158 9 84 16 156 16 161 0 4 -9 7 -20 7
-16 0 -20 7 -20 35 0 28 4 35 20 35 11 0 27 11 36 25 11 18 25 25 47 25 l30 0
-6 -52z m-171 25 c13 -14 15 -29 11 -80 -7 -67 -15 -83 -94 -180 -23 -29 -47
-62 -53 -73 -10 -18 -8 -20 19 -20 27 0 30 3 33 38 3 35 5 37 42 40 l39 3 -6
-53 c-4 -29 -7 -63 -7 -75 0 -16 -8 -25 -25 -29 l-26 -6 22 -37 c24 -39 61
-191 47 -191 -4 0 -8 4 -8 9 0 5 -9 13 -20 16 -11 4 -18 11 -15 16 4 5 -1 9
-9 9 -15 0 -21 17 -17 47 1 6 -8 14 -19 18 -11 3 -32 16 -48 29 -30 24 -97 47
-116 40 -16 -6 -51 32 -37 41 6 3 11 15 11 27 0 12 5 18 13 15 6 -3 19 -8 28
-12 13 -5 18 2 23 38 5 29 28 76 71 143 66 103 91 174 62 174 -11 0 -18 -14
-22 -44 -7 -41 -9 -44 -41 -48 l-34 -4 0 44 c0 47 20 95 47 111 29 17 109 13
129 -6z m-386 -114 c14 -103 14 -104 22 -54 4 28 10 76 13 108 l6 57 36 0 35
0 -5 -42 c-4 -24 -13 -113 -22 -198 -20 -194 -21 -197 -45 -205 -11 -4 -17
-11 -14 -17 5 -7 2 -8 -6 -3 -17 11 -160 23 -154 14 5 -8 -47 -21 -66 -17 -7
2 -15 -3 -18 -11 -3 -10 2 -13 21 -9 15 3 24 1 21 -3 -3 -5 -16 -9 -29 -9 -13
0 -27 -4 -30 -10 -7 -12 182 -1 208 12 10 5 21 7 25 4 3 -3 1 -6 -5 -6 -6 0
-18 -11 -27 -25 -16 -24 -15 -25 3 -25 11 0 32 11 46 25 31 31 35 10 5 -28
-32 -40 -111 -62 -282 -76 -81 -7 -104 -12 -135 -34 -48 -33 -107 -46 -203
-47 -105 0 -205 28 -216 62 -9 29 23 86 68 118 l43 32 -67 -4 c-61 -4 -68 -2
-68 15 0 15 -6 12 -34 -15 -18 -18 -45 -51 -59 -74 -20 -32 -35 -44 -70 -54
-62 -17 -70 -9 -65 60 3 49 9 62 39 92 19 19 34 39 32 44 -2 5 11 17 28 26 16
10 29 23 27 30 -1 7 6 25 16 40 25 38 10 55 -18 21 -28 -34 -41 -67 -23 -58 6
4 -1 -5 -18 -19 -16 -14 -30 -30 -30 -36 0 -6 -5 -14 -10 -18 -19 -12 -55 -69
-55 -85 0 -9 -5 -19 -11 -23 -7 -4 -9 0 -5 14 7 20 4 21 -61 15 l-69 -6 22
209 c13 115 23 217 23 227 1 13 10 17 41 17 l41 0 -6 -47 c-11 -93 -35 -308
-35 -315 0 -9 69 1 96 13 18 9 22 28 38 182 10 95 18 172 19 173 1 1 40 5 86
9 l84 7 -6 -23 c-4 -13 -7 -32 -7 -41 0 -14 -9 -18 -40 -18 -43 0 -45 -2 -55
-62 -6 -38 -6 -38 30 -38 38 0 38 -1 29 -49 -5 -22 -12 -31 -26 -31 -13 0 -18
-6 -16 -17 3 -13 13 -18 36 -17 55 3 37 -38 -23 -50 -29 -6 -29 -6 -5 5 16 7
20 13 12 16 -17 6 -64 -25 -57 -37 9 -15 57 -11 79 5 10 8 22 12 27 9 9 -5 14
27 33 209 8 71 17 131 20 135 9 9 121 15 150 8 15 -3 26 -16 30 -31 10 -39 -5
-126 -25 -146 -15 -15 -16 -19 -3 -30 16 -13 19 -92 5 -151 -5 -21 -5 -38 -1
-38 22 0 33 46 52 218 l21 190 67 6 c39 4 78 3 94 -4 28 -10 28 -11 24 -84 -2
-55 -8 -80 -22 -95 -23 -25 -15 -27 18 -5 18 11 26 28 31 67 4 29 14 67 23 86
26 57 116 80 163 42 23 -18 24 -25 21 -112 -2 -79 -1 -90 12 -80 8 7 19 50 26
111 12 96 13 99 39 103 14 2 31 3 36 2 6 -1 17 -48 25 -106z m259 -427 c30
-14 49 -28 43 -30 -6 -2 -20 1 -31 7 -11 6 -22 11 -25 11 -12 0 -5 -28 9 -40
8 -7 15 -21 15 -31 0 -11 5 -16 13 -13 8 3 20 -2 27 -12 12 -14 12 -16 -5 -14
-35 4 -37 1 -16 -26 12 -15 21 -34 21 -43 0 -28 -39 40 -56 98 -10 36 -21 55
-35 58 -21 6 -27 22 -6 19 6 0 14 3 17 9 3 5 -13 13 -35 16 -47 8 -57 3 -24
-11 21 -9 19 -9 -11 -4 -44 8 -50 12 -50 29 0 22 84 9 149 -23z m-1351 -108
c16 -11 34 -14 58 -10 l34 7 0 -101 c0 -56 6 -131 14 -168 8 -37 18 -107 21
-155 l7 -88 51 -30 c29 -16 79 -52 113 -78 55 -43 68 -49 128 -55 76 -8 160
-41 214 -86 24 -19 48 -30 69 -30 27 0 32 -4 35 -27 2 -21 14 -34 46 -52 44
-23 44 -23 82 -5 21 10 36 22 34 26 -2 3 15 13 38 20 34 12 44 20 50 46 10 36
32 41 99 22 31 -9 45 -6 93 16 31 14 82 28 113 31 41 4 66 12 83 28 28 26 70
49 76 42 8 -7 -8 -67 -17 -62 -4 3 -15 -7 -23 -23 -8 -16 -22 -34 -30 -41 -14
-11 -16 -11 -17 5 0 18 -1 18 -9 -1 -5 -12 -9 -14 -9 -6 -1 10 -7 8 -19 -7
-14 -16 -22 -18 -30 -10 -9 9 -12 6 -13 -13 l0 -24 -9 23 c-5 12 -13 22 -17
22 -15 -1 -58 -45 -73 -75 -25 -53 -41 -67 -58 -52 -13 10 -14 6 -9 -33 4 -25
10 -61 14 -80 4 -19 7 -49 8 -67 0 -17 2 -30 4 -27 2 2 17 -17 33 -41 16 -24
44 -57 61 -72 l32 -28 -27 -55 c-15 -30 -28 -51 -28 -46 0 17 -29 -28 -30 -46
0 -9 6 -19 13 -21 9 -4 9 -6 -1 -6 -8 -1 -19 13 -25 29 -6 17 -15 30 -19 30
-4 0 -8 7 -8 15 0 21 -16 19 -24 -2 -19 -51 -31 -63 -63 -63 -19 0 -34 -5 -35
-12 -1 -7 -4 18 -7 57 -5 56 -10 70 -23 73 -10 2 -18 -2 -18 -8 0 -7 -16 -34
-36 -61 -33 -45 -39 -49 -72 -46 -33 2 -37 6 -37 30 l1 26 -28 -33 c-34 -41
-92 -53 -112 -24 -14 19 -51 15 -40 -4 4 -6 1 -8 -7 -4 -8 3 -22 9 -31 12 -10
3 -20 15 -23 25 -8 23 -25 15 -25 -11 0 -23 -30 -36 -31 -12 0 12 -2 13 -6 3
-13 -32 -20 16 -17 112 3 104 2 103 -25 -28 -9 -46 -10 -43 -5 30 3 44 12 112
20 151 8 39 16 99 19 133 5 63 32 141 61 172 13 15 12 16 -21 13 -31 -2 -35 0
-35 22 0 13 4 24 10 24 5 0 7 7 3 16 -5 13 -8 13 -15 2 -7 -10 -11 -10 -15 0
-7 19 -23 14 -16 -5 5 -17 5 -17 -13 0 -16 15 -17 19 -4 27 11 7 12 10 2 10
-8 0 -26 -8 -40 -18 -32 -23 -65 -35 -57 -23 3 5 1 12 -5 16 -6 4 -8 10 -5 15
11 18 -30 20 -51 3 -12 -10 -45 -37 -74 -60 -28 -24 -56 -43 -62 -43 -5 0 -65
57 -134 126 l-124 126 0 149 c0 87 6 190 16 247 8 53 16 114 16 135 0 37 1 38
32 32 l31 -6 -32 15 c-18 8 -33 20 -33 26 0 14 12 13 38 -6z m1422 -51 c-1
-27 -1 -27 -15 -9 -19 25 -19 36 0 36 10 0 15 -10 15 -27z m45 0 c13 -34 16
-65 5 -58 -5 3 -10 15 -10 26 0 11 -4 18 -8 15 -4 -2 -9 4 -9 15 -2 24 12 25
22 2z m55 -83 c0 -15 -45 -30 -86 -30 -23 0 -34 5 -34 14 0 11 14 16 48 19 26
2 53 4 60 5 6 1 12 -3 12 -8z m30 -150 c0 -15 4 -30 9 -32 15 -5 25 -58 11
-58 -6 0 -8 5 -5 11 4 5 0 18 -8 27 -19 21 -35 98 -18 88 6 -4 11 -20 11 -36z
m-45 -28 c-3 -3 -11 0 -18 7 -9 10 -8 11 6 5 10 -3 15 -9 12 -12z m-575 -17
c35 -18 73 -61 65 -74 -3 -6 -15 -11 -26 -11 -11 0 -17 -4 -14 -10 3 -5 -1
-10 -10 -10 -10 0 -13 5 -9 12 4 6 3 8 -4 4 -6 -3 -21 -2 -34 4 -15 7 -50 8
-99 2 l-77 -8 2 28 c5 74 117 108 206 63z m547 -101 c-6 -60 8 -160 25 -181 7
-9 5 -17 -5 -27 -12 -12 -18 -13 -32 -2 -15 10 -18 32 -21 132 -1 65 0 101 4
79 5 -31 9 -36 15 -22 4 10 7 32 7 48 0 16 3 29 6 29 4 0 4 -25 1 -56z m80
-26 c-3 -8 -6 -5 -6 6 -1 11 2 17 5 13 3 -3 4 -12 1 -19z m-718 -23 l20 -35
-45 0 c-46 0 -46 0 -32 23 8 12 18 28 22 35 10 17 12 16 35 -23z m659 0 c-6
-14 -13 -23 -16 -21 -7 7 9 46 18 46 5 0 4 -11 -2 -25z m-464 -16 c-3 -5 -1
-16 6 -23 17 -22 2 -66 -24 -66 -17 0 -18 2 -6 10 12 8 12 10 -3 16 -10 3 -17
11 -16 18 1 6 1 20 0 31 -1 17 -3 18 -11 5 -5 -8 -10 -11 -10 -6 0 5 7 18 16
27 13 14 21 16 36 8 10 -5 16 -14 12 -20z m-299 -36 c-31 -28 -50 -30 -40 -5
4 9 9 24 12 33 4 14 9 14 29 5 l25 -11 -26 -22z m219 30 c12 -30 -11 -39 -51
-18 -35 19 -35 20 -12 26 41 12 57 10 63 -8z m-95 -82 c9 -6 -2 -10 -35 -13
-55 -5 -59 -4 -49 11 8 13 64 14 84 2z m16 -41 c-3 -5 -12 -10 -18 -10 -7 0
-6 4 3 10 19 12 23 12 15 0z m-45 -20 c-18 -12 -57 -13 -64 -2 -2 4 14 9 37 9
30 2 37 -1 27 -7z m-59 -197 c13 -16 12 -17 -3 -4 -10 7 -18 15 -18 17 0 8 8
3 21 -13z m743 -49 c-21 -25 -56 -56 -79 -70 -23 -13 -50 -33 -60 -44 -10 -11
-23 -20 -28 -20 -6 0 7 17 29 38 21 20 36 39 34 41 -3 2 4 9 15 15 11 6 23 16
27 21 5 7 8 7 8 0 0 -5 5 -2 11 8 5 9 16 17 23 17 7 0 21 9 31 20 34 37 26 20
-11 -26z m-1644 -584 c0 -5 7 -10 15 -10 8 0 15 5 15 10 0 6 10 10 23 10 22 0
24 -5 25 -52 0 -29 -4 -58 -10 -65 -6 -7 -32 -13 -59 -13 l-49 0 0 65 c0 58 2
65 20 65 11 0 20 -4 20 -10z m210 -10 c0 -16 -7 -20 -35 -20 -24 0 -35 -5 -35
-15 0 -10 11 -15 35 -15 24 0 35 -5 35 -15 0 -10 -11 -15 -35 -15 -33 0 -35
-2 -35 -35 0 -31 -3 -35 -25 -35 -25 0 -25 1 -25 78 0 43 3 82 7 85 3 4 30 7
60 7 46 0 53 -2 53 -20z m-150 -135 c11 -13 6 -15 -39 -15 -28 0 -51 4 -51 9
0 23 72 28 90 6z"/>
<path d="M1450 1915 c0 -5 160 -85 170 -85 12 1 -40 34 -97 61 -63 29 -73 33
-73 24z"/>
<path d="M1590 1885 c7 -8 16 -15 21 -15 5 0 6 7 3 15 -4 8 -13 15 -21 15 -13
0 -13 -3 -3 -15z"/>
<path d="M1076 2235 c-3 -8 -8 -36 -11 -62 -6 -45 -5 -49 19 -60 31 -14 32 -8
5 37 -21 34 -21 34 -1 17 19 -18 20 -17 24 22 2 22 2 45 0 50 -5 16 -29 13
-36 -4z m9 -95 c3 -5 1 -10 -4 -10 -6 0 -11 5 -11 10 0 6 2 10 4 10 3 0 8 -4
11 -10z"/>
<path d="M845 2228 c-2 -7 -6 -35 -8 -61 -4 -40 -2 -48 12 -45 18 4 38 76 28
102 -8 19 -26 21 -32 4z"/>
<path d="M605 2169 c-8 -54 -4 -65 18 -56 15 6 32 81 22 98 -16 25 -34 6 -40
-42z"/>
<path d="M1240 2123 c0 -8 4 -11 10 -8 6 3 7 -1 4 -10 -4 -10 2 -24 15 -36 24
-23 27 -42 7 -58 -10 -9 -15 -9 -18 -1 -4 14 -58 3 -58 -11 0 -6 9 -5 21 1 11
7 22 10 24 8 2 -2 -19 -16 -47 -31 -27 -15 -47 -23 -43 -17 17 27 -43 -4 -73
-38 -22 -25 -23 -26 -17 -4 8 28 1 28 -25 0 -26 -28 -40 -15 -14 13 20 22 110
67 177 89 58 18 38 22 -29 5 -32 -8 -113 -42 -179 -75 -66 -33 -128 -60 -138
-60 -22 0 -22 -9 1 -26 16 -12 15 -13 -5 -14 -13 0 -23 -4 -23 -10 0 -5 -11
-10 -24 -10 -14 0 -28 -4 -31 -10 -4 -6 5 -10 19 -10 42 0 29 -18 -16 -23 -24
-3 -59 -9 -78 -14 -34 -9 -34 -10 30 -18 130 -17 157 -14 180 17 11 15 27 28
34 28 8 0 17 7 20 16 3 8 10 12 16 9 5 -3 10 1 10 9 0 12 -6 13 -32 5 -18 -5
-40 -9 -48 -9 -15 1 68 33 130 51 19 5 44 14 55 19 43 20 109 28 159 19 28 -5
60 -10 71 -11 29 -4 30 28 2 55 -20 18 -23 26 -15 41 8 14 6 28 -6 53 -19 41
-20 46 -3 37 6 -4 4 2 -6 13 -23 27 -57 36 -57 16z m-383 -309 c-3 -3 -12 -4
-19 -1 -8 3 -5 6 6 6 11 1 17 -2 13 -5z"/>
<path d="M980 2090 c-9 -6 -10 -10 -3 -10 6 0 15 5 18 10 8 12 4 12 -15 0z"/>
<path d="M926 2043 c-6 -14 -5 -15 5 -6 7 7 10 15 7 18 -3 3 -9 -2 -12 -12z"/>
<path d="M820 2015 c0 -40 2 -41 24 -19 23 22 20 54 -4 54 -16 0 -20 -7 -20
-35z"/>
<path d="M1051 2027 c-13 -21 -12 -21 5 -5 10 10 16 20 13 22 -3 3 -11 -5 -18
-17z"/>
<path d="M1085 2030 c-10 -11 -13 -20 -8 -20 13 0 38 29 31 35 -3 3 -13 -4
-23 -15z"/>
<path d="M586 1994 c-10 -73 -8 -86 11 -82 19 4 31 35 32 91 1 30 -3 37 -18
37 -14 0 -20 -10 -25 -46z"/>
<path d="M1170 1985 c-8 -9 -8 -15 -2 -15 12 0 26 19 19 26 -2 2 -10 -2 -17
-11z"/>
<path d="M350 1882 c-18 -4 -55 -52 -40 -52 5 0 10 -8 10 -18 0 -10 6 -27 14
-38 14 -19 15 -19 22 0 7 18 8 18 20 2 11 -16 13 -16 19 3 3 11 1 30 -6 43 -6
12 -15 31 -18 43 -3 11 -13 19 -21 17z"/>
<path d="M1064 1860 c0 -11 1 -20 3 -20 1 0 7 9 13 20 8 15 8 20 -3 20 -7 0
-13 -9 -13 -20z"/>
<path d="M1020 1850 c0 -5 5 -10 11 -10 5 0 7 5 4 10 -3 6 -8 10 -11 10 -2 0
-4 -4 -4 -10z"/>
<path d="M296 1805 c-3 -8 -1 -15 4 -15 6 0 10 7 10 15 0 8 -2 15 -4 15 -2 0
-6 -7 -10 -15z"/>
<path d="M963 1738 c-50 -11 -59 -30 -10 -22 53 10 107 24 107 29 0 8 -50 4
-97 -7z"/>
<path d="M876 875 c-11 -8 -14 -15 -7 -15 7 0 10 -4 6 -9 -3 -5 -2 -12 3 -15
4 -2 13 4 20 14 10 16 9 18 -6 14 -14 -5 -14 -3 2 10 25 20 8 21 -18 1z"/>
<path d="M944 872 c-7 -5 -6 -15 3 -32 l13 -25 0 33 c0 35 0 35 -16 24z"/>
<path d="M1205 859 c-22 -10 -34 -19 -27 -19 15 0 72 28 72 35 0 6 3 7 -45
-16z"/>
<path d="M1251 850 c-7 -4 -11 -13 -9 -21 2 -9 -5 -14 -19 -13 -13 0 -23 -3
-23 -8 0 -5 13 -7 29 -6 16 1 27 6 25 10 -3 4 -1 8 3 8 5 0 17 6 28 13 17 13
17 14 -2 19 -12 3 -26 2 -32 -2z"/>
<path d="M920 835 c-11 -13 -10 -14 4 -9 9 3 16 10 16 15 0 13 -6 11 -20 -6z"/>
<path d="M1333 805 c0 -22 2 -30 4 -17 2 12 2 30 0 40 -3 9 -5 -1 -4 -23z"/>
<path d="M805 789 c-9 -17 -15 -33 -13 -35 3 -2 12 12 21 31 21 43 13 47 -8 4z"/>
<path d="M854 788 c-9 -14 -2 -16 26 -8 25 6 25 6 3 12 -13 3 -26 2 -29 -4z"/>
<path d="M1341 740 c-1 -19 19 -93 24 -88 2 2 -2 26 -10 53 -7 28 -14 43 -14
35z"/>
<path d="M781 724 c0 -11 3 -14 6 -6 3 7 2 16 -1 19 -3 4 -6 -2 -5 -13z"/>
<path d="M873 718 c0 -7 -17 -40 -37 -72 -20 -33 -36 -63 -36 -67 0 -13 74 3
83 18 4 7 24 13 42 13 19 0 34 3 34 8 -3 18 2 32 12 32 6 0 9 -9 6 -20 -5 -19
-2 -21 46 -18 34 2 52 8 55 18 5 13 3 13 -12 1 -20 -16 -29 -11 -20 13 3 9 14
16 23 16 13 0 13 2 2 9 -19 12 -3 34 20 28 11 -3 19 -1 19 4 0 20 -69 9 -98
-16 -17 -14 -33 -25 -37 -25 -4 0 0 11 9 25 16 24 16 25 -4 25 -12 0 -19 -4
-15 -9 5 -9 -34 -85 -41 -79 -1 2 1 21 6 43 5 22 8 41 6 42 -1 2 -13 -9 -27
-24 -13 -15 -16 -21 -6 -14 12 9 17 10 17 2 0 -6 -10 -15 -23 -20 -25 -10 -55
-41 -39 -41 5 0 12 7 16 15 3 8 12 15 21 15 26 0 17 -17 -19 -34 -40 -19 -46
-20 -46 -5 0 14 58 100 78 117 14 10 12 12 -9 12 -14 0 -26 -6 -26 -12z m162
-68 c-16 -32 -35 -32 -35 -1 0 19 43 55 48 41 2 -5 -4 -23 -13 -40z"/>
<path d="M1113 665 c-27 -53 -27 -55 -9 -55 8 0 16 10 18 23 4 31 22 27 26 -6
5 -38 41 -55 80 -37 15 7 22 15 15 17 -10 3 -10 9 0 23 9 16 8 22 -7 33 -11 8
-16 19 -12 25 4 7 2 12 -4 12 -19 0 -24 -32 -7 -45 20 -14 22 -31 5 -38 -9 -4
-8 -6 2 -6 12 -1 13 -3 1 -10 -22 -14 -49 -1 -60 30 -8 24 -7 29 10 34 35 11
16 46 -24 45 -7 0 -22 -21 -34 -45z m57 20 c0 -8 -7 -15 -15 -15 -9 0 -12 6
-9 15 4 8 10 15 15 15 5 0 9 -7 9 -15z"/>
<path d="M1246 685 c4 -8 7 -15 9 -15 2 0 5 7 9 15 3 9 0 15 -9 15 -9 0 -12
-6 -9 -15z"/>
<path d="M1176 641 c-5 -7 -3 -18 3 -24 14 -14 20 -6 11 17 -5 15 -9 16 -14 7z"/>
<path d="M762 570 c0 -14 2 -19 5 -12 2 6 2 18 0 25 -3 6 -5 1 -5 -13z"/>
<path d="M1390 553 c0 -17 59 -93 73 -93 8 0 9 3 1 8 -6 4 -25 27 -42 51 -18
24 -32 40 -32 34z"/>
<path d="M957 505 c-24 -33 -36 -187 -17 -210 19 -22 63 -18 88 8 43 46 20
127 -37 127 -18 0 -22 5 -19 28 3 31 44 45 54 18 8 -22 34 -20 34 2 -1 53 -71
71 -103 27z m58 -126 c4 -5 4 -21 1 -35 -5 -19 -12 -25 -29 -22 -17 2 -23 11
-25 36 -3 28 0 32 22 32 14 0 28 -5 31 -11z"/>
<path d="M1252 1197 c-14 -17 -4 -57 14 -57 18 0 18 14 -1 30 -12 10 -13 16
-4 26 6 8 9 14 6 14 -2 0 -9 -6 -15 -13z"/>
<path d="M117 163 c-12 -11 -8 -23 8 -23 8 0 15 7 15 15 0 16 -12 20 -23 8z"/>
</g>
</svg>
